<mxfile host="app.diagrams.net" modified="2023-09-18T03:23:49.184Z" agent="Mozilla/5.0 (Macintosh; Intel Mac OS X 10_15_7) AppleWebKit/537.36 (KHTML, like Gecko) Chrome/116.0.0.0 Safari/537.36" version="21.7.4" etag="EdXXbr2HEVAxqh7WO84m" type="github">
  <diagram name="第 1 页" id="5DbHbhBtOaXlr2Rkf5YW">
    <mxGraphModel>
      <root>
        <mxCell id="0" />
        <mxCell id="1" parent="0" />
      </root>
    </mxGraphModel>
  </diagram>
</mxfile>
